name p4_grf_mean_speed_1.4
datacolumns 13
datarows 62
range 0.0000000000 0.6100000000
endheader
time	grf_x_l_mean	grf_x_l_var	grf_y_l_mean	grf_y_l_var	grf_z_l_mean	grf_z_l_var	grf_x_r_mean	grf_x_r_var	grf_y_r_mean	grf_y_r_var	grf_z_r_mean	grf_z_r_var
0.0000000000	124.1405658625	1.0000000000	835.5904087357	1.0000000000	0.0000000000	0.0000000000	18.6126973436	1.0000000000	11.2945724266	1.0000000000	0.0000000000	0.0000000000
0.0100000000	138.2914123707	1.0000000000	828.6575019365	1.0000000000	0.0000000000	0.0000000000	29.2649687529	1.0000000000	44.2892952378	1.0000000000	0.0000000000	0.0000000000
0.0200000000	152.5135568394	1.0000000000	810.5635919842	1.0000000000	0.0000000000	0.0000000000	37.3087433881	1.0000000000	96.9030776797	1.0000000000	0.0000000000	0.0000000000
0.0300000000	165.6390886477	1.0000000000	779.6842471741	1.0000000000	0.0000000000	0.0000000000	35.1062538047	1.0000000000	168.5010699585	1.0000000000	0.0000000000	0.0000000000
0.0400000000	175.5806163573	1.0000000000	734.2847954395	1.0000000000	0.0000000000	0.0000000000	16.1694124179	1.0000000000	256.0210418182	1.0000000000	0.0000000000	0.0000000000
0.0500000000	179.7206270913	1.0000000000	672.6843225368	1.0000000000	0.0000000000	0.0000000000	-16.6449860555	1.0000000000	356.4697285730	1.0000000000	0.0000000000	0.0000000000
0.0600000000	176.9563865956	1.0000000000	595.3812553143	1.0000000000	0.0000000000	0.0000000000	-54.2965455896	1.0000000000	464.7783272934	1.0000000000	0.0000000000	0.0000000000
0.0700000000	165.8008410940	1.0000000000	505.4468498120	1.0000000000	0.0000000000	0.0000000000	-90.7133915591	1.0000000000	570.4249242526	1.0000000000	0.0000000000	0.0000000000
0.0800000000	144.6529198378	1.0000000000	407.5785520622	1.0000000000	0.0000000000	0.0000000000	-122.9553344472	1.0000000000	661.5015219131	1.0000000000	0.0000000000	0.0000000000
0.0900000000	115.2299540249	1.0000000000	309.0028522991	1.0000000000	0.0000000000	0.0000000000	-147.1706825933	1.0000000000	732.1989942472	1.0000000000	0.0000000000	0.0000000000
0.1000000000	82.6443236772	1.0000000000	219.1175647641	1.0000000000	0.0000000000	0.0000000000	-161.2022885906	1.0000000000	783.8499670434	1.0000000000	0.0000000000	0.0000000000
0.1100000000	52.2307658986	1.0000000000	144.7916871093	1.0000000000	0.0000000000	0.0000000000	-167.5090610012	1.0000000000	820.8613982797	1.0000000000	0.0000000000	0.0000000000
0.1200000000	27.4055888237	1.0000000000	87.6643617247	1.0000000000	0.0000000000	0.0000000000	-168.4494279753	1.0000000000	847.9182489222	1.0000000000	0.0000000000	0.0000000000
0.1300000000	10.2108274692	1.0000000000	47.2677813452	1.0000000000	0.0000000000	0.0000000000	-164.2230291679	1.0000000000	869.5006730929	1.0000000000	0.0000000000	0.0000000000
0.1400000000	-0.1135389855	1.0000000000	22.7234252976	1.0000000000	0.0000000000	0.0000000000	-155.9485895467	1.0000000000	888.3262020594	1.0000000000	0.0000000000	0.0000000000
0.1500000000	-5.4817437999	1.0000000000	10.5355204331	1.0000000000	0.0000000000	0.0000000000	-146.1847224609	1.0000000000	902.9180368154	1.0000000000	0.0000000000	0.0000000000
0.1600000000	-7.2322226602	1.0000000000	5.4674867273	1.0000000000	0.0000000000	0.0000000000	-134.5217519664	1.0000000000	908.6881992287	1.0000000000	0.0000000000	0.0000000000
0.1700000000	-6.8228870549	1.0000000000	4.0317903894	1.0000000000	0.0000000000	0.0000000000	-120.1704915805	1.0000000000	902.1845290862	1.0000000000	0.0000000000	0.0000000000
0.1800000000	-5.8801203513	1.0000000000	4.8146379529	1.0000000000	0.0000000000	0.0000000000	-105.2360436377	1.0000000000	882.8281133709	1.0000000000	0.0000000000	0.0000000000
0.1900000000	-4.7878272573	1.0000000000	6.2252200416	1.0000000000	0.0000000000	0.0000000000	-91.0535632661	1.0000000000	851.2979394953	1.0000000000	0.0000000000	0.0000000000
0.2000000000	-3.3468721799	1.0000000000	6.5722590882	1.0000000000	0.0000000000	0.0000000000	-77.2659022301	1.0000000000	809.0115804468	1.0000000000	0.0000000000	0.0000000000
0.2100000000	-2.4636942086	1.0000000000	5.7822817573	1.0000000000	0.0000000000	0.0000000000	-64.4394801817	1.0000000000	759.3981008547	1.0000000000	0.0000000000	0.0000000000
0.2200000000	-2.1072183947	1.0000000000	4.9454484734	1.0000000000	0.0000000000	0.0000000000	-54.0225066429	1.0000000000	707.6729157340	1.0000000000	0.0000000000	0.0000000000
0.2300000000	-1.6701179811	1.0000000000	4.3023741441	1.0000000000	0.0000000000	0.0000000000	-45.2452617363	1.0000000000	658.8564357332	1.0000000000	0.0000000000	0.0000000000
0.2400000000	-1.4218029011	1.0000000000	3.3624080568	1.0000000000	0.0000000000	0.0000000000	-37.2358711518	1.0000000000	616.4557609817	1.0000000000	0.0000000000	0.0000000000
0.2500000000	-1.6139560139	1.0000000000	2.3386574581	1.0000000000	0.0000000000	0.0000000000	-30.8164148727	1.0000000000	582.3320301590	1.0000000000	0.0000000000	0.0000000000
0.2600000000	-1.4695906601	1.0000000000	1.8968677717	1.0000000000	0.0000000000	0.0000000000	-25.9721218633	1.0000000000	557.1384400690	1.0000000000	0.0000000000	0.0000000000
0.2700000000	-0.8574602301	1.0000000000	1.7799597680	1.0000000000	0.0000000000	0.0000000000	-21.5090068287	1.0000000000	540.6057151442	1.0000000000	0.0000000000	0.0000000000
0.2800000000	-0.8171286240	1.0000000000	1.2811102717	1.0000000000	0.0000000000	0.0000000000	-17.3373591026	1.0000000000	531.6571770575	1.0000000000	0.0000000000	0.0000000000
0.2900000000	-1.0070338356	1.0000000000	0.7530053742	1.0000000000	0.0000000000	0.0000000000	-14.2191727405	1.0000000000	528.9347420892	1.0000000000	0.0000000000	0.0000000000
0.3000000000	-0.5683391381	1.0000000000	0.7819717816	1.0000000000	0.0000000000	0.0000000000	-11.6845155996	1.0000000000	531.3066604551	1.0000000000	0.0000000000	0.0000000000
0.3100000000	-0.2081745455	1.0000000000	0.8544192002	1.0000000000	0.0000000000	0.0000000000	-9.1284456033	1.0000000000	537.6324068294	1.0000000000	0.0000000000	0.0000000000
0.3200000000	-0.6422982881	1.0000000000	0.3853533681	1.0000000000	0.0000000000	0.0000000000	-6.7046205563	1.0000000000	546.5851071571	1.0000000000	0.0000000000	0.0000000000
0.3300000000	0.0000000000	1.0000000000	0.0000000000	1.0000000000	0.0000000000	0.0000000000	-4.5381201536	1.0000000000	557.5774594633	1.0000000000	0.0000000000	0.0000000000
0.3400000000	-0.4119343608	1.0000000000	0.0734749678	1.0000000000	0.0000000000	0.0000000000	-2.3590677634	1.0000000000	570.9898656479	1.0000000000	0.0000000000	0.0000000000
0.3500000000	-0.2272609410	1.0000000000	0.3630569072	1.0000000000	0.0000000000	0.0000000000	-0.0969188925	1.0000000000	586.8115668206	1.0000000000	0.0000000000	0.0000000000
0.3600000000	-0.2537276986	1.0000000000	0.3787636943	1.0000000000	0.0000000000	0.0000000000	2.3592683325	1.0000000000	604.3204778504	1.0000000000	0.0000000000	0.0000000000
0.3700000000	-0.0482129825	1.0000000000	0.4492591587	1.0000000000	0.0000000000	0.0000000000	5.4705251316	1.0000000000	623.0968378828	1.0000000000	0.0000000000	0.0000000000
0.3800000000	0.0152336258	1.0000000000	0.7744585666	1.0000000000	0.0000000000	0.0000000000	9.3385540776	1.0000000000	643.0458605474	1.0000000000	0.0000000000	0.0000000000
0.3900000000	-0.3077029060	1.0000000000	0.9158880882	1.0000000000	0.0000000000	0.0000000000	14.1843125642	1.0000000000	663.7895842921	1.0000000000	0.0000000000	0.0000000000
0.4000000000	-0.4549488210	1.0000000000	0.6510293889	1.0000000000	0.0000000000	0.0000000000	20.3758577826	1.0000000000	685.0296705198	1.0000000000	0.0000000000	0.0000000000
0.4100000000	-0.5294538788	1.0000000000	0.3570132756	1.0000000000	0.0000000000	0.0000000000	27.9663485480	1.0000000000	706.8369117406	1.0000000000	0.0000000000	0.0000000000
0.4200000000	-1.0160552604	1.0000000000	0.0166498853	1.0000000000	0.0000000000	0.0000000000	36.6786015549	1.0000000000	728.9459969430	1.0000000000	0.0000000000	0.0000000000
0.4300000000	0.0000000000	1.0000000000	0.0000000000	1.0000000000	0.0000000000	0.0000000000	46.2641989938	1.0000000000	750.7726059719	1.0000000000	0.0000000000	0.0000000000
0.4400000000	0.0000000000	1.0000000000	0.0000000000	1.0000000000	0.0000000000	0.0000000000	56.4999055011	1.0000000000	772.2799335625	1.0000000000	0.0000000000	0.0000000000
0.4500000000	0.0000000000	1.0000000000	0.0000000000	1.0000000000	0.0000000000	0.0000000000	67.0290195300	1.0000000000	793.4523824186	1.0000000000	0.0000000000	0.0000000000
0.4600000000	0.0000000000	1.0000000000	0.0000000000	1.0000000000	0.0000000000	0.0000000000	77.8015460604	1.0000000000	812.9848859055	1.0000000000	0.0000000000	0.0000000000
0.4700000000	0.0000000000	1.0000000000	0.0000000000	1.0000000000	0.0000000000	0.0000000000	88.9052963998	1.0000000000	828.9350026915	1.0000000000	0.0000000000	0.0000000000
0.4800000000	0.0000000000	1.0000000000	0.0000000000	1.0000000000	0.0000000000	0.0000000000	100.3450697889	1.0000000000	840.4180309267	1.0000000000	0.0000000000	0.0000000000
0.4900000000	11.8877322917	1.0000000000	7.5534443618	1.0000000000	0.0000000000	0.0000000000	112.3546841335	1.0000000000	847.1447492797	1.0000000000	0.0000000000	0.0000000000
0.5000000000	23.0150560419	1.0000000000	30.1236570643	1.0000000000	0.0000000000	0.0000000000	125.3783326482	1.0000000000	847.6407229485	1.0000000000	0.0000000000	0.0000000000
0.5100000000	35.7413317750	1.0000000000	66.8270031385	1.0000000000	0.0000000000	0.0000000000	139.3217849787	1.0000000000	839.3670008991	1.0000000000	0.0000000000	0.0000000000
0.5200000000	44.3934889383	1.0000000000	118.2390018156	1.0000000000	0.0000000000	0.0000000000	153.5838385558	1.0000000000	819.9591672871	1.0000000000	0.0000000000	0.0000000000
0.5300000000	40.4338404614	1.0000000000	182.7452798210	1.0000000000	0.0000000000	0.0000000000	166.9232199086	1.0000000000	787.0857862570	1.0000000000	0.0000000000	0.0000000000
0.5400000000	18.9877571799	1.0000000000	259.5521158651	1.0000000000	0.0000000000	0.0000000000	176.8656859148	1.0000000000	738.1603411345	1.0000000000	0.0000000000	0.0000000000
0.5500000000	-16.7538835736	1.0000000000	350.3593477962	1.0000000000	0.0000000000	0.0000000000	181.3359860639	1.0000000000	671.9519617563	1.0000000000	0.0000000000	0.0000000000
0.5600000000	-59.2491493791	1.0000000000	454.6973205386	1.0000000000	0.0000000000	0.0000000000	178.4850342623	1.0000000000	589.9089361307	1.0000000000	0.0000000000	0.0000000000
0.5700000000	-101.4787290348	1.0000000000	564.8417073709	1.0000000000	0.0000000000	0.0000000000	165.8200432184	1.0000000000	495.6413736514	1.0000000000	0.0000000000	0.0000000000
0.5800000000	-137.7308337529	1.0000000000	668.5173163288	1.0000000000	0.0000000000	0.0000000000	143.3535923418	1.0000000000	395.1668686204	1.0000000000	0.0000000000	0.0000000000
0.5900000000	-163.1229206730	1.0000000000	755.5094168884	1.0000000000	0.0000000000	0.0000000000	114.3560045314	1.0000000000	297.4402008869	1.0000000000	0.0000000000	0.0000000000
0.6000000000	-175.3927342397	1.0000000000	819.7298601168	1.0000000000	0.0000000000	0.0000000000	83.0995420577	1.0000000000	211.0804915330	1.0000000000	0.0000000000	0.0000000000
0.6100000000	-175.6848748989	1.0000000000	857.9898619326	1.0000000000	0.0000000000	0.0000000000	53.8983969856	1.0000000000	139.8042572113	1.0000000000	0.0000000000	0.0000000000
